<?xml version="1.0" encoding="UTF-8" standalone="no"?>
<!-- Created with Inkscape (http://www.inkscape.org/) -->

<svg
   xmlns:dc="http://purl.org/dc/elements/1.1/"
   xmlns:cc="http://creativecommons.org/ns#"
   xmlns:rdf="http://www.w3.org/1999/02/22-rdf-syntax-ns#"
   xmlns:svg="http://www.w3.org/2000/svg"
   xmlns="http://www.w3.org/2000/svg"
   xmlns:sodipodi="http://sodipodi.sourceforge.net/DTD/sodipodi-0.dtd"
   xmlns:inkscape="http://www.inkscape.org/namespaces/inkscape"
   width="54.602379mm"
   height="26.37612mm"
   viewBox="0 0 193.473 93.458691"
   id="svg2"
   version="1.1"
   inkscape:version="0.91 r13725"
   sodipodi:docname="logo.svg">
  <defs
     id="defs4" />
  <sodipodi:namedview
     id="base"
     pagecolor="#ffffff"
     bordercolor="#666666"
     borderopacity="1.0"
     inkscape:pageopacity="0.0"
     inkscape:pageshadow="2"
     inkscape:zoom="0.70710678"
     inkscape:cx="498.31485"
     inkscape:cy="58.991294"
     inkscape:document-units="px"
     inkscape:current-layer="layer1"
     showgrid="false"
     showguides="true"
     inkscape:guide-bbox="true"
     fit-margin-top="0"
     fit-margin-left="0"
     fit-margin-right="0"
     fit-margin-bottom="0"
     inkscape:window-width="1920"
     inkscape:window-height="1029"
     inkscape:window-x="0"
     inkscape:window-y="0"
     inkscape:window-maximized="1" />
  <metadata
     id="metadata7">
    <rdf:RDF>
      <cc:Work
         rdf:about="">
        <dc:format>image/svg+xml</dc:format>
        <dc:type
           rdf:resource="http://purl.org/dc/dcmitype/StillImage" />
        <dc:title></dc:title>
      </cc:Work>
    </rdf:RDF>
  </metadata>
  <g
     inkscape:label="Layer 1"
     inkscape:groupmode="layer"
     id="layer1"
     transform="translate(1005.9438,-285.55361)">
    <g
       id="g4207">
      <g
         style="fill:#d4dae7;fill-opacity:1"
         id="g4180">
        <path
           style="fill:#d4dae7;fill-opacity:1;fill-rule:evenodd;stroke:none;stroke-width:1px;stroke-linecap:butt;stroke-linejoin:miter;stroke-opacity:1"
           d="m -829.96094,285.55361 13.96485,0 0,50.11328 -13.96485,0 0,-50.11328"
           id="path4174"
           inkscape:connector-curvature="0" />
        <path
           style="fill:#d4dae7;fill-opacity:1;fill-rule:evenodd;stroke:none;stroke-width:1px;stroke-linecap:butt;stroke-linejoin:miter;stroke-opacity:1"
           d="m -935.99609,285.55361 0,9.79297 116.74609,0 0,-9.79297 z"
           id="path4176"
           inkscape:connector-curvature="0" />
        <path
           inkscape:connector-curvature="0"
           id="path4178"
           d="m -935.99609,325.87392 0,9.79297 116.74609,0 0,-9.79297 z"
           style="fill:#d4dae7;fill-opacity:1;fill-rule:evenodd;stroke:none;stroke-width:1px;stroke-linecap:butt;stroke-linejoin:miter;stroke-opacity:1" />
      </g>
      <g
         transform="translate(60,0)"
         id="g4199">
        <g
           style="color:#000000;font-style:normal;font-variant:normal;font-weight:bold;font-stretch:normal;font-size:144px;line-height:125%;font-family:Play;-inkscape-font-specification:'Play Bold';text-indent:0;text-align:start;text-decoration:none;text-decoration-line:none;text-decoration-style:solid;text-decoration-color:#000000;letter-spacing:0px;word-spacing:0px;text-transform:none;direction:ltr;block-progression:tb;writing-mode:lr-tb;baseline-shift:baseline;text-anchor:start;white-space:normal;clip-rule:nonzero;display:inline;overflow:visible;visibility:visible;opacity:1;isolation:auto;mix-blend-mode:normal;color-interpolation:sRGB;color-interpolation-filters:linearRGB;solid-color:#000000;solid-opacity:1;fill:#3b424b;fill-opacity:1;fill-rule:nonzero;stroke:none;stroke-width:1;stroke-linecap:butt;stroke-linejoin:miter;stroke-miterlimit:4;stroke-dasharray:none;stroke-dashoffset:0;stroke-opacity:1;color-rendering:auto;image-rendering:auto;shape-rendering:auto;text-rendering:auto;enable-background:accumulate"
           id="text4136">
          <path
             d="m -1029.9638,285.5563 64.22399,0 0,9.792 -50.25599,0 0,30.528 45.50399,0 0,9.792 -45.50399,0 0,43.344 -13.968,0 0,-93.456 z"
             style="font-style:normal;font-variant:normal;font-weight:normal;font-stretch:normal;font-family:Play;-inkscape-font-specification:Play"
             id="path4221"
             inkscape:connector-curvature="0" />
        </g>
        <g
           style="color:#000000;font-style:normal;font-variant:normal;font-weight:bold;font-stretch:normal;font-size:144px;line-height:125%;font-family:Play;-inkscape-font-specification:'Play Bold';text-indent:0;text-align:start;text-decoration:none;text-decoration-line:none;text-decoration-style:solid;text-decoration-color:#000000;letter-spacing:0px;word-spacing:0px;text-transform:none;direction:ltr;block-progression:tb;writing-mode:lr-tb;baseline-shift:baseline;text-anchor:start;white-space:normal;clip-rule:nonzero;display:inline;overflow:visible;visibility:visible;opacity:1;isolation:auto;mix-blend-mode:normal;color-interpolation:sRGB;color-interpolation-filters:linearRGB;solid-color:#000000;solid-opacity:1;fill:#3b424b;fill-opacity:1;fill-rule:nonzero;stroke:none;stroke-width:1;stroke-linecap:butt;stroke-linejoin:miter;stroke-miterlimit:4;stroke-dasharray:none;stroke-dashoffset:0;stroke-opacity:1;color-rendering:auto;image-rendering:auto;shape-rendering:auto;text-rendering:auto;enable-background:accumulate"
           id="text4189">
          <path
             d="m -1053.8478,379.0123 q -6.696,0 -9.432,-2.376 -2.664,-2.448 -2.664,-7.632 l 0,-25.56 6.48,0 0,25.2 q 0,1.368 0.216,2.232 0.288,0.792 0.936,1.656 1.296,1.872 6.336,1.872 5.328,0 7.488,-1.008 2.088,-1.008 2.088,-3.672 l 0,-26.28 6.48,0 0,34.848 -6.48,0 0,-4.248 q -0.936,4.968 -11.448,4.968 z"
             style="font-size:72px"
             id="path4224"
             inkscape:connector-curvature="0" />
          <path
             d="m -976.79319,379.0123 q -4.608,0 -6.912,-0.36 -2.304,-0.288 -4.608,-1.368 -2.376,-1.08 -3.456,-3.456 -1.08,-2.448 -1.08,-6.552 l 0,-12.096 q 0,-3.24 0.792,-5.688 0.792,-2.448 2.088,-3.816 1.08,-1.224 3.24,-1.872 2.232,-0.72 4.536,-0.936 2.592,-0.144 5.4,-0.144 3.744,0 5.616,0.216 1.944,0.144 4.104,0.72 2.232,0.648 3.456,1.944 1.224,1.296 2.088,3.744 0.792,2.52 0.792,5.832 l 0,12.096 q 0,6.12 -2.808,8.928 -1.152,1.152 -3.312,1.8 -2.16,0.648 -4.464,0.864 -2.736,0.144 -5.472,0.144 z m 0,-4.248 q 3.024,0 4.392,-0.144 1.368,-0.144 2.664,-0.792 1.296,-0.576 1.8,-1.872 0.576,-1.368 0.576,-3.744 l 0,-14.112 q 0,-3.24 -0.792,-4.68 -0.792,-1.512 -2.736,-1.944 -1.872,-0.504 -5.904,-0.504 -4.032,0 -5.976,0.504 -1.872,0.432 -2.664,1.944 -0.792,1.44 -0.792,4.68 l 0,14.112 q 0,2.376 0.504,3.744 0.576,1.296 1.872,1.872 1.296,0.648 2.664,0.792 1.368,0.144 4.392,0.144 z"
             style="font-size:72px"
             id="path4226"
             inkscape:connector-curvature="0" />
          <path
             d="m -950.63131,343.4443 6.12,0 0,5.688 q 0,-1.656 1.44,-3.096 1.44,-1.512 3.672,-2.376 2.232,-0.936 4.392,-0.936 l 3.168,0 0,5.544 -3.6,0 q -4.608,0 -6.696,1.224 -2.016,1.152 -2.016,4.248 l 0,24.552 -6.48,0 0,-34.848 z"
             style="font-size:72px"
             id="path4228"
             inkscape:connector-curvature="0" />
          <path
             d="m -925.31881,343.4443 6.48,0 0,4.248 q 1.008,-4.968 11.736,-4.968 8.712,0 10.872,4.752 0.648,-2.304 3.888,-3.528 3.312,-1.224 8.064,-1.224 6.48,0 9.144,2.448 2.664,2.376 2.664,7.56 l 0,25.56 -6.48,0 0,-25.128 q 0,-1.368 -0.216,-2.232 -0.216,-0.864 -0.864,-1.728 -1.44,-1.8 -6.408,-1.8 -3.816,0 -5.688,0.504 -1.872,0.504 -2.592,1.728 -0.648,1.224 -0.648,3.528 l 0,25.128 -6.48,0 0,-25.128 q 0,-1.368 -0.216,-2.232 -0.216,-0.864 -0.864,-1.728 -1.44,-1.8 -6.336,-1.8 -3.96,0 -5.976,0.504 -2.016,0.504 -2.808,1.728 -0.792,1.152 -0.792,3.528 l 0,25.128 -6.48,0 0,-34.848 z"
             style="font-size:72px"
             id="path4230"
             inkscape:connector-curvature="0" />
        </g>
      </g>
    </g>
  </g>
</svg>
