<svg xmlns="http://www.w3.org/2000/svg" width="1920" height="1080"><path d="M-601,-281L-16,-341L585,-480Z" fill="#ddf2d7" stroke="#ddf2d7" stroke-width="1.51"/><path d="M544,1447L-546,1480L969,1495Z" fill="#769aad" stroke="#769aad" stroke-width="1.51"/><path d="M1350,1401L969,1495L2112,1553Z" fill="#2f7eb3" stroke="#2f7eb3" stroke-width="1.51"/><path d="M2074,618L2314,1085L2460,618Z" fill="#398aba" stroke="#398aba" stroke-width="1.51"/><path d="M2314,1085L2336,1542L2460,618Z" fill="#1f71ab" stroke="#1f71ab" stroke-width="1.51"/><path d="M2105,-260L2084,0L2491,73Z" fill="#83a6ba" stroke="#83a6ba" stroke-width="1.51"/><path d="M1739,-455L2105,-260L2538,-345Z" fill="#8fafc9" stroke="#8fafc9" stroke-width="1.51"/><path d="M2491,73L2490,290L2538,-345Z" fill="#7a95a9" stroke="#7a95a9" stroke-width="1.51"/><path d="M2105,-260L2491,73L2538,-345Z" fill="#839fb6" stroke="#839fb6" stroke-width="1.51"/><path d="M2074,618L2460,618L2490,290Z" fill="#5591b0" stroke="#5591b0" stroke-width="1.51"/><path d="M1949,438L2074,618L2490,290Z" fill="#5d9cb7" stroke="#5d9cb7" stroke-width="1.51"/><path d="M2084,0L2490,290L2491,73Z" fill="#769bad" stroke="#769bad" stroke-width="1.51"/><path d="M2084,0L1949,438L2490,290Z" fill="#71a2b3" stroke="#71a2b3" stroke-width="1.51"/><path d="M2074,618L2015,1037L2314,1085Z" fill="#2f88bd" stroke="#2f88bd" stroke-width="1.51"/><path d="M2314,1085L2112,1553L2336,1542Z" fill="#0962a6" stroke="#0962a6" stroke-width="1.51"/><path d="M2015,1037L2112,1553L2314,1085Z" fill="#1773b2" stroke="#1773b2" stroke-width="1.51"/><path d="M1787,1132L1775,1358L2015,1037Z" fill="#2582b9" stroke="#2582b9" stroke-width="1.51"/><path d="M1688,697L2015,1037L2074,618Z" fill="#3f9ac5" stroke="#3f9ac5" stroke-width="1.51"/><path d="M1805,427L1949,438L2084,0Z" fill="#72abb8" stroke="#72abb8" stroke-width="1.51"/><path d="M1662,-83L1805,427L2084,0Z" fill="#80b4be" stroke="#80b4be" stroke-width="1.51"/><path d="M1662,-83L2084,0L2105,-260Z" fill="#8bb3c4" stroke="#8bb3c4" stroke-width="1.51"/><path d="M1775,1358L1350,1401L2112,1553Z" fill="#2176b0" stroke="#2176b0" stroke-width="1.51"/><path d="M2015,1037L1775,1358L2112,1553Z" fill="#1974b3" stroke="#1974b3" stroke-width="1.51"/><path d="M1739,-455L1662,-83L2105,-260Z" fill="#92bbcc" stroke="#92bbcc" stroke-width="1.51"/><path d="M1949,438L1688,697L2074,618Z" fill="#54a4c0" stroke="#54a4c0" stroke-width="1.51"/><path d="M1805,427L1688,697L1949,438Z" fill="#5caac0" stroke="#5caac0" stroke-width="1.51"/><path d="M1688,697L1787,1132L2015,1037Z" fill="#3393c2" stroke="#3393c2" stroke-width="1.51"/><path d="M1688,697L1248,1039L1787,1132Z" fill="#3e9fc8" stroke="#3e9fc8" stroke-width="1.51"/><path d="M1350,1401L1775,1358L1787,1132Z" fill="#2a84bb" stroke="#2a84bb" stroke-width="1.51"/><path d="M1662,-83L1267,98L1805,427Z" fill="#85c0c3" stroke="#85c0c3" stroke-width="1.51"/><path d="M1267,98L1257,409L1805,427Z" fill="#7cc3c4" stroke="#7cc3c4" stroke-width="1.51"/><path d="M1257,409L1688,697L1805,427Z" fill="#64b6c5" stroke="#64b6c5" stroke-width="1.51"/><path d="M1414,-463L1662,-83L1739,-455Z" fill="#9bc8d3" stroke="#9bc8d3" stroke-width="1.51"/><path d="M1248,1039L1350,1401L1787,1132Z" fill="#3794c3" stroke="#3794c3" stroke-width="1.51"/><path d="M1257,409L1204,672L1688,697Z" fill="#63bccd" stroke="#63bccd" stroke-width="1.51"/><path d="M1204,672L1248,1039L1688,697Z" fill="#4fb3d3" stroke="#4fb3d3" stroke-width="1.51"/><path d="M1414,-463L1267,98L1662,-83Z" fill="#99cdd0" stroke="#99cdd0" stroke-width="1.51"/><path d="M127,1368L-546,1480L544,1447Z" fill="#82a1b7" stroke="#82a1b7" stroke-width="1.51"/><path d="M585,-480L985,-262L1414,-463Z" fill="#b4e1d4" stroke="#b4e1d4" stroke-width="1.51"/><path d="M985,-262L1267,98L1414,-463Z" fill="#a4d6d2" stroke="#a4d6d2" stroke-width="1.51"/><path d="M985,-262L937,-67L1267,98Z" fill="#a5d9ca" stroke="#a5d9ca" stroke-width="1.51"/><path d="M1248,1039L1023,1057L1350,1401Z" fill="#499fc3" stroke="#499fc3" stroke-width="1.51"/><path d="M1023,1057L969,1495L1350,1401Z" fill="#4b97bd" stroke="#4b97bd" stroke-width="1.51"/><path d="M1204,672L1018,714L1248,1039Z" fill="#5cb9cf" stroke="#5cb9cf" stroke-width="1.51"/><path d="M1018,714L1023,1057L1248,1039Z" fill="#5ab2ca" stroke="#5ab2ca" stroke-width="1.51"/><path d="M1018,714L1204,672L1257,409Z" fill="#6ec3c9" stroke="#6ec3c9" stroke-width="1.51"/><path d="M890,327L1018,714L1257,409Z" fill="#7ccac5" stroke="#7ccac5" stroke-width="1.51"/><path d="M890,327L1257,409L1267,98Z" fill="#8bcec1" stroke="#8bcec1" stroke-width="1.51"/><path d="M937,-67L890,327L1267,98Z" fill="#9ad6c3" stroke="#9ad6c3" stroke-width="1.51"/><path d="M-44,1358L-546,1480L127,1368Z" fill="#87a6be" stroke="#87a6be" stroke-width="1.51"/><path d="M691,-37L890,327L937,-67Z" fill="#a7dcc0" stroke="#a7dcc0" stroke-width="1.51"/><path d="M607,1138L544,1447L969,1495Z" fill="#659db5" stroke="#659db5" stroke-width="1.51"/><path d="M481,775L607,1138L1018,714Z" fill="#77c0c5" stroke="#77c0c5" stroke-width="1.51"/><path d="M890,327L566,376L1018,714Z" fill="#89d1c0" stroke="#89d1c0" stroke-width="1.51"/><path d="M566,376L481,775L1018,714Z" fill="#87cdc2" stroke="#87cdc2" stroke-width="1.51"/><path d="M1018,714L607,1138L1023,1057Z" fill="#66b6c4" stroke="#66b6c4" stroke-width="1.51"/><path d="M607,1138L969,1495L1023,1057Z" fill="#5da3bc" stroke="#5da3bc" stroke-width="1.51"/><path d="M691,-37L937,-67L985,-262Z" fill="#afdfc8" stroke="#afdfc8" stroke-width="1.51"/><path d="M585,-480L691,-37L985,-262Z" fill="#b9e3cb" stroke="#b9e3cb" stroke-width="1.51"/><path d="M691,-37L566,376L890,327Z" fill="#a3daba" stroke="#a3daba" stroke-width="1.51"/><path d="M-16,-341L329,-318L585,-480Z" fill="#d3eed1" stroke="#d3eed1" stroke-width="1.51"/><path d="M257,69L566,376L691,-37Z" fill="#b3e2ba" stroke="#b3e2ba" stroke-width="1.51"/><path d="M585,-480L329,-318L691,-37Z" fill="#c5e8c8" stroke="#c5e8c8" stroke-width="1.51"/><path d="M329,-318L257,69L691,-37Z" fill="#c3e8c3" stroke="#c3e8c3" stroke-width="1.51"/><path d="M277,398L481,775L566,376Z" fill="#9ad7be" stroke="#9ad7be" stroke-width="1.51"/><path d="M257,69L277,398L566,376Z" fill="#afe0b9" stroke="#afe0b9" stroke-width="1.51"/><path d="M481,775L273,991L607,1138Z" fill="#81bec1" stroke="#81bec1" stroke-width="1.51"/><path d="M127,1368L544,1447L607,1138Z" fill="#76a5b6" stroke="#76a5b6" stroke-width="1.51"/><path d="M273,991L127,1368L607,1138Z" fill="#7fb1bc" stroke="#7fb1bc" stroke-width="1.51"/><path d="M277,398L110,679L481,775Z" fill="#9bd5c4" stroke="#9bd5c4" stroke-width="1.51"/><path d="M110,679L273,991L481,775Z" fill="#8fccca" stroke="#8fccca" stroke-width="1.51"/><path d="M-16,-341L257,69L329,-318Z" fill="#d1edcb" stroke="#d1edcb" stroke-width="1.51"/><path d="M-16,-341L-151,42L257,69Z" fill="#d1edcb" stroke="#d1edcb" stroke-width="1.51"/><path d="M110,679L-132,822L273,991Z" fill="#97cece" stroke="#97cece" stroke-width="1.51"/><path d="M-142,1200L127,1368L273,991Z" fill="#89b4c1" stroke="#89b4c1" stroke-width="1.51"/><path d="M-188,469L110,679L277,398Z" fill="#aaddc6" stroke="#aaddc6" stroke-width="1.51"/><path d="M257,69L-151,42L277,398Z" fill="#c1e7c0" stroke="#c1e7c0" stroke-width="1.51"/><path d="M-151,42L-188,469L277,398Z" fill="#bce5c2" stroke="#bce5c2" stroke-width="1.51"/><path d="M-132,822L-142,1200L273,991Z" fill="#91c2c9" stroke="#91c2c9" stroke-width="1.51"/><path d="M-142,1200L-44,1358L127,1368Z" fill="#87acbf" stroke="#87acbf" stroke-width="1.51"/><path d="M-188,469L-132,822L110,679Z" fill="#a4d8ce" stroke="#a4d8ce" stroke-width="1.51"/><path d="M-395,-100L-151,42L-16,-341Z" fill="#d9f0d2" stroke="#d9f0d2" stroke-width="1.51"/><path d="M-601,-281L-395,-100L-16,-341Z" fill="#e1f3db" stroke="#e1f3db" stroke-width="1.51"/><path d="M-188,469L-408,740L-132,822Z" fill="#a8d8d3" stroke="#a8d8d3" stroke-width="1.51"/><path d="M-142,1200L-546,1480L-44,1358Z" fill="#8babc4" stroke="#8babc4" stroke-width="1.51"/><path d="M-608,459L-188,469L-151,42Z" fill="#c1e7ca" stroke="#c1e7ca" stroke-width="1.51"/><path d="M-395,-100L-608,459L-151,42Z" fill="#d0edcf" stroke="#d0edcf" stroke-width="1.51"/><path d="M-558,996L-142,1200L-132,822Z" fill="#97c4d0" stroke="#97c4d0" stroke-width="1.51"/><path d="M-408,740L-558,996L-132,822Z" fill="#a1d0d8" stroke="#a1d0d8" stroke-width="1.51"/><path d="M-558,996L-546,1480L-142,1200Z" fill="#93b6cc" stroke="#93b6cc" stroke-width="1.51"/><path d="M-608,459L-408,740L-188,469Z" fill="#b3e1d3" stroke="#b3e1d3" stroke-width="1.51"/><path d="M-601,-281L-608,459L-395,-100Z" fill="#dcf1d5" stroke="#dcf1d5" stroke-width="1.51"/><path d="M-608,459L-558,996L-408,740Z" fill="#acd9dc" stroke="#acd9dc" stroke-width="1.51"/><path d="M-558,996L-608,459L-546,1480Z" fill="#a1c9d8" stroke="#a1c9d8" stroke-width="1.51"/></svg>